<?xml version="1.0" standalone="no"?><!DOCTYPE svg PUBLIC "-//W3C//DTD SVG 1.1//EN" "http://www.w3.org/Graphics/SVG/1.1/DTD/svg11.dtd"><svg viewBox="0 0 356 145" preserveAspectRatio="xMidYMid meet" class="css-a32uf1 logo" id="bgefeffc" version="1.1" xmlns="http://www.w3.org/2000/svg" xmlns:xlink="http://www.w3.org/1999/xlink" style="display:block;height:122.188px;max-height:70%;max-width:300px;min-height:auto;min-width:auto;pointer-events:none;perspective-origin:150px 61.0875px;transform-origin:150px 61.0875px;"><defs id="SvgjsDefs1100" style="height:auto;overflow-x:visible;overflow-y:visible;pointer-events:none;width:auto;perspective-origin:0px 0px;transform-origin:0px 0px;"/><g id="SvgjsG1101" featurekey="root" fill="#ffffff" transform="matrix(1,0,0,1,0,0)" style="height:auto;overflow-x:visible;overflow-y:visible;pointer-events:none;width:auto;perspective-origin:0px 0px;transform:matrix(1, 0, 0, 1, 0, 0);transform-origin:0px 0px;fill:rgb(255, 255, 255);"/><g id="SvgjsG1102" featurekey="symbol1" fill="#5c6461" transform="matrix(2.340440405702288,0,0,2.340440405702288,-11.065478298670243,-3.6790525208990523)" style="height:auto;overflow-x:visible;overflow-y:visible;pointer-events:none;width:auto;perspective-origin:0px 0px;transform:matrix(2.34044, 0, 0, 2.34044, -11.0655, -3.67905);transform-origin:0px 0px;fill:rgb(92, 100, 97);"><path d="M50.341,38.389L49.56,27.96c1.577-0.533,2.724-2.011,2.724-3.767c0-2.201-1.79-3.991-3.99-3.991  c-0.38,0-0.741,0.07-1.09,0.17l-2.751-5.968c0.523-0.676,0.849-1.513,0.849-2.432c0-2.201-1.791-3.991-3.992-3.991  c-2.046,0-3.718,1.552-3.946,3.537l-12.665,1.38c-0.591-1.62-2.133-2.787-3.956-2.787c-2.331,0-4.228,1.896-4.228,4.225  c0,1.286,0.589,2.425,1.498,3.201l-2.405,5.415c-0.158-0.019-0.314-0.048-0.478-0.048c-2.202,0-3.993,1.79-3.993,3.991  c0,2.03,1.529,3.693,3.493,3.942v6.239c-1.964,0.249-3.493,1.91-3.493,3.939c0,2.201,1.791,3.992,3.993,3.992  c0.704,0,1.355-0.198,1.93-0.52l8.192,2.454c-0.094,0.34-0.161,0.69-0.161,1.06c0,2.201,1.791,3.992,3.993,3.992  c1.425,0,2.669-0.758,3.376-1.885l7.188,1.74c-0.117,0.374-0.198,0.765-0.198,1.178c0,2.201,1.791,3.992,3.992,3.992  c2.2,0,3.99-1.791,3.99-3.992c0-1.176-0.521-2.224-1.331-2.955l3.132-3.811c0.21,0.034,0.422,0.064,0.641,0.064  c2.2,0,3.99-1.791,3.99-3.992C53.863,40.293,52.318,38.624,50.341,38.389z M49.338,38.396c-1.03,0.141-1.928,0.668-2.553,1.438  l-5.567-2.606c0.021-0.164,0.05-0.325,0.05-0.495c0-1.265-0.603-2.38-1.523-3.111l6.388-6.081c0.624,0.404,1.364,0.645,2.161,0.645  c0.095,0,0.185-0.021,0.277-0.028L49.338,38.396z M37.277,39.725c-1.65,0-2.993-1.343-2.993-2.992c0-1.648,1.343-2.99,2.993-2.99  c1.648,0,2.99,1.342,2.99,2.99C40.268,38.382,38.926,39.725,37.277,39.725z M33.323,36.343l-14.268,4.03  c-0.131-0.803-0.498-1.524-1.033-2.091l10.968-9.987c0.708,0.639,1.636,1.04,2.663,1.04c0.231,0,0.454-0.03,0.675-0.068l2.592,4.263  C34.033,34.183,33.438,35.189,33.323,36.343z M19.077,27.328l8.642-1.407c0.087,0.593,0.292,1.146,0.609,1.625L17.239,37.643  c-0.478-0.3-1.024-0.492-1.609-0.566v-6.239C17.45,30.606,18.876,29.157,19.077,27.328z M31.653,22.352  c1.649,0,2.991,1.341,2.991,2.99c0,1.65-1.342,2.993-2.991,2.993c-1.65,0-2.993-1.342-2.993-2.993  C28.661,23.693,30.003,22.352,31.653,22.352z M35.599,25.792l8.759-1.042c0.115,0.82,0.474,1.557,1.01,2.139l-6.502,6.188  c-0.487-0.213-1.023-0.334-1.588-0.334c-0.526,0-1.027,0.108-1.488,0.294l-2.476-4.074C34.554,28.391,35.438,27.203,35.599,25.792z   M51.283,24.193c0,1.65-1.342,2.993-2.99,2.993c-1.649,0-2.992-1.342-2.992-2.993c0-1.649,1.343-2.991,2.992-2.991  C49.941,21.202,51.283,22.544,51.283,24.193z M44.347,23.743l-8.759,1.042c-0.123-0.873-0.514-1.66-1.108-2.257l5.642-6.765  c0.377,0.119,0.771,0.201,1.188,0.201c0.898,0,1.719-0.309,2.387-0.812l2.588,5.612C45.228,21.386,44.491,22.471,44.347,23.743z   M41.309,8.981c1.649,0,2.992,1.342,2.992,2.991c0,1.65-1.343,2.993-2.992,2.993s-2.992-1.342-2.992-2.993  C38.316,10.323,39.659,8.981,41.309,8.981z M37.372,12.523c0.166,1.182,0.839,2.197,1.804,2.812l-5.494,6.59  c-0.597-0.355-1.285-0.573-2.028-0.573c-0.746,0-1.436,0.218-2.034,0.575l-5.343-5.29c0.433-0.663,0.689-1.452,0.689-2.301  c0-0.156-0.03-0.305-0.046-0.457L37.372,12.523z M17.514,14.337c0-1.778,1.448-3.225,3.228-3.225c1.778,0,3.225,1.447,3.225,3.225  c0,1.779-1.447,3.227-3.225,3.227C18.962,17.564,17.514,16.116,17.514,14.337z M18.856,18.1c0.57,0.287,1.205,0.464,1.885,0.464  c1.12,0,2.132-0.446,2.889-1.159l5.187,5.135c-0.617,0.624-1.012,1.453-1.112,2.37l-8.643,1.407  c-0.209-1.427-1.165-2.607-2.466-3.125L18.856,18.1z M12.137,26.895c0-1.649,1.342-2.991,2.993-2.991  c1.649,0,2.991,1.342,2.991,2.991c0,1.65-1.342,2.993-2.991,2.993C13.479,29.888,12.137,28.545,12.137,26.895z M12.137,41.016  c0-1.648,1.342-2.99,2.993-2.99c1.649,0,2.991,1.342,2.991,2.99c0,1.649-1.342,2.992-2.991,2.992  C13.479,44.008,12.137,42.665,12.137,41.016z M18.033,43.737c0.584-0.624,0.959-1.435,1.048-2.332l14.269-4.03  c0.167,1.021,0.721,1.906,1.509,2.512l-3.891,4.62c-0.564-0.306-1.2-0.495-1.885-0.495c-1.475,0-2.751,0.813-3.442,2.004  L18.033,43.737z M29.083,50.994c-1.65,0-2.993-1.343-2.993-2.992c0-1.648,1.342-2.99,2.993-2.99c1.649,0,2.991,1.342,2.991,2.99  C32.074,49.651,30.732,50.994,29.083,50.994z M32.876,49.181c0.117-0.375,0.198-0.766,0.198-1.179c0-1.154-0.5-2.187-1.287-2.916  l3.938-4.675c0.478,0.201,1.002,0.313,1.552,0.313c0.491,0,0.957-0.102,1.393-0.265l3.209,8.896  c-0.755,0.322-1.383,0.876-1.814,1.565L32.876,49.181z M46.432,53.027c0,1.649-1.342,2.992-2.99,2.992  c-1.649,0-2.992-1.343-2.992-2.992s1.343-2.992,2.992-2.992C45.09,50.035,46.432,51.378,46.432,53.027z M45.274,49.502  c-0.552-0.288-1.169-0.467-1.833-0.467c-0.203,0-0.397,0.03-0.593,0.06l-3.283-9.102c0.626-0.44,1.118-1.055,1.409-1.774  l5.271,2.467c-0.23,0.504-0.366,1.06-0.366,1.648c0,1.602,0.954,2.976,2.318,3.611L45.274,49.502z M49.873,45.326  c-1.651,0-2.994-1.343-2.994-2.992s1.343-2.992,2.994-2.992c1.648,0,2.99,1.343,2.99,2.992S51.521,45.326,49.873,45.326z" style="height:auto;overflow-x:visible;overflow-y:visible;pointer-events:none;width:auto;perspective-origin:0px 0px;transform-origin:0px 0px;fill:rgb(92, 100, 97);d:path('M 50.341 38.389 L 49.56 27.96 c 1.577 -0.533 2.724 -2.011 2.724 -3.767 c 0 -2.201 -1.79 -3.991 -3.99 -3.991 c -0.38 0 -0.741 0.07 -1.09 0.17 l -2.751 -5.968 c 0.523 -0.676 0.849 -1.513 0.849 -2.432 c 0 -2.201 -1.791 -3.991 -3.992 -3.991 c -2.046 0 -3.718 1.552 -3.946 3.537 l -12.665 1.38 c -0.591 -1.62 -2.133 -2.787 -3.956 -2.787 c -2.331 0 -4.228 1.896 -4.228 4.225 c 0 1.286 0.589 2.425 1.498 3.201 l -2.405 5.415 c -0.158 -0.019 -0.314 -0.048 -0.478 -0.048 c -2.202 0 -3.993 1.79 -3.993 3.991 c 0 2.03 1.529 3.693 3.493 3.942 v 6.239 c -1.964 0.249 -3.493 1.91 -3.493 3.939 c 0 2.201 1.791 3.992 3.993 3.992 c 0.704 0 1.355 -0.198 1.93 -0.52 l 8.192 2.454 c -0.094 0.34 -0.161 0.69 -0.161 1.06 c 0 2.201 1.791 3.992 3.993 3.992 c 1.425 0 2.669 -0.758 3.376 -1.885 l 7.188 1.74 c -0.117 0.374 -0.198 0.765 -0.198 1.178 c 0 2.201 1.791 3.992 3.992 3.992 c 2.2 0 3.99 -1.791 3.99 -3.992 c 0 -1.176 -0.521 -2.224 -1.331 -2.955 l 3.132 -3.811 c 0.21 0.034 0.422 0.064 0.641 0.064 c 2.2 0 3.99 -1.791 3.99 -3.992 C 53.863 40.293 52.318 38.624 50.341 38.389 Z M 49.338 38.396 c -1.03 0.141 -1.928 0.668 -2.553 1.438 l -5.567 -2.606 c 0.021 -0.164 0.05 -0.325 0.05 -0.495 c 0 -1.265 -0.603 -2.38 -1.523 -3.111 l 6.388 -6.081 c 0.624 0.404 1.364 0.645 2.161 0.645 c 0.095 0 0.185 -0.021 0.277 -0.028 L 49.338 38.396 Z M 37.277 39.725 c -1.65 0 -2.993 -1.343 -2.993 -2.992 c 0 -1.648 1.343 -2.99 2.993 -2.99 c 1.648 0 2.99 1.342 2.99 2.99 C 40.268 38.382 38.926 39.725 37.277 39.725 Z M 33.323 36.343 l -14.268 4.03 c -0.131 -0.803 -0.498 -1.524 -1.033 -2.091 l 10.968 -9.987 c 0.708 0.639 1.636 1.04 2.663 1.04 c 0.231 0 0.454 -0.03 0.675 -0.068 l 2.592 4.263 C 34.033 34.183 33.438 35.189 33.323 36.343 Z M 19.077 27.328 l 8.642 -1.407 c 0.087 0.593 0.292 1.146 0.609 1.625 L 17.239 37.643 c -0.478 -0.3 -1.024 -0.492 -1.609 -0.566 v -6.239 C 17.45 30.606 18.876 29.157 19.077 27.328 Z M 31.653 22.352 c 1.649 0 2.991 1.341 2.991 2.99 c 0 1.65 -1.342 2.993 -2.991 2.993 c -1.65 0 -2.993 -1.342 -2.993 -2.993 C 28.661 23.693 30.003 22.352 31.653 22.352 Z M 35.599 25.792 l 8.759 -1.042 c 0.115 0.82 0.474 1.557 1.01 2.139 l -6.502 6.188 c -0.487 -0.213 -1.023 -0.334 -1.588 -0.334 c -0.526 0 -1.027 0.108 -1.488 0.294 l -2.476 -4.074 C 34.554 28.391 35.438 27.203 35.599 25.792 Z M 51.283 24.193 c 0 1.65 -1.342 2.993 -2.99 2.993 c -1.649 0 -2.992 -1.342 -2.992 -2.993 c 0 -1.649 1.343 -2.991 2.992 -2.991 C 49.941 21.202 51.283 22.544 51.283 24.193 Z M 44.347 23.743 l -8.759 1.042 c -0.123 -0.873 -0.514 -1.66 -1.108 -2.257 l 5.642 -6.765 c 0.377 0.119 0.771 0.201 1.188 0.201 c 0.898 0 1.719 -0.309 2.387 -0.812 l 2.588 5.612 C 45.228 21.386 44.491 22.471 44.347 23.743 Z M 41.309 8.981 c 1.649 0 2.992 1.342 2.992 2.991 c 0 1.65 -1.343 2.993 -2.992 2.993 s -2.992 -1.342 -2.992 -2.993 C 38.316 10.323 39.659 8.981 41.309 8.981 Z M 37.372 12.523 c 0.166 1.182 0.839 2.197 1.804 2.812 l -5.494 6.59 c -0.597 -0.355 -1.285 -0.573 -2.028 -0.573 c -0.746 0 -1.436 0.218 -2.034 0.575 l -5.343 -5.29 c 0.433 -0.663 0.689 -1.452 0.689 -2.301 c 0 -0.156 -0.03 -0.305 -0.046 -0.457 L 37.372 12.523 Z M 17.514 14.337 c 0 -1.778 1.448 -3.225 3.228 -3.225 c 1.778 0 3.225 1.447 3.225 3.225 c 0 1.779 -1.447 3.227 -3.225 3.227 C 18.962 17.564 17.514 16.116 17.514 14.337 Z M 18.856 18.1 c 0.57 0.287 1.205 0.464 1.885 0.464 c 1.12 0 2.132 -0.446 2.889 -1.159 l 5.187 5.135 c -0.617 0.624 -1.012 1.453 -1.112 2.37 l -8.643 1.407 c -0.209 -1.427 -1.165 -2.607 -2.466 -3.125 L 18.856 18.1 Z M 12.137 26.895 c 0 -1.649 1.342 -2.991 2.993 -2.991 c 1.649 0 2.991 1.342 2.991 2.991 c 0 1.65 -1.342 2.993 -2.991 2.993 C 13.479 29.888 12.137 28.545 12.137 26.895 Z M 12.137 41.016 c 0 -1.648 1.342 -2.99 2.993 -2.99 c 1.649 0 2.991 1.342 2.991 2.99 c 0 1.649 -1.342 2.992 -2.991 2.992 C 13.479 44.008 12.137 42.665 12.137 41.016 Z M 18.033 43.737 c 0.584 -0.624 0.959 -1.435 1.048 -2.332 l 14.269 -4.03 c 0.167 1.021 0.721 1.906 1.509 2.512 l -3.891 4.62 c -0.564 -0.306 -1.2 -0.495 -1.885 -0.495 c -1.475 0 -2.751 0.813 -3.442 2.004 L 18.033 43.737 Z M 29.083 50.994 c -1.65 0 -2.993 -1.343 -2.993 -2.992 c 0 -1.648 1.342 -2.99 2.993 -2.99 c 1.649 0 2.991 1.342 2.991 2.99 C 32.074 49.651 30.732 50.994 29.083 50.994 Z M 32.876 49.181 c 0.117 -0.375 0.198 -0.766 0.198 -1.179 c 0 -1.154 -0.5 -2.187 -1.287 -2.916 l 3.938 -4.675 c 0.478 0.201 1.002 0.313 1.552 0.313 c 0.491 0 0.957 -0.102 1.393 -0.265 l 3.209 8.896 c -0.755 0.322 -1.383 0.876 -1.814 1.565 L 32.876 49.181 Z M 46.432 53.027 c 0 1.649 -1.342 2.992 -2.99 2.992 c -1.649 0 -2.992 -1.343 -2.992 -2.992 s 1.343 -2.992 2.992 -2.992 C 45.09 50.035 46.432 51.378 46.432 53.027 Z M 45.274 49.502 c -0.552 -0.288 -1.169 -0.467 -1.833 -0.467 c -0.203 0 -0.397 0.03 -0.593 0.06 l -3.283 -9.102 c 0.626 -0.44 1.118 -1.055 1.409 -1.774 l 5.271 2.467 c -0.23 0.504 -0.366 1.06 -0.366 1.648 c 0 1.602 0.954 2.976 2.318 3.611 L 45.274 49.502 Z M 49.873 45.326 c -1.651 0 -2.994 -1.343 -2.994 -2.992 s 1.343 -2.992 2.994 -2.992 c 1.648 0 2.99 1.343 2.99 2.992 S 51.521 45.326 49.873 45.326 Z');"/></g><g id="SvgjsG1103" featurekey="text1" fill="#5c6461" transform="matrix(3.239740740656824,0,0,3.239740740656824,127.08423147961433,11.287259261608924)" style="height:auto;overflow-x:visible;overflow-y:visible;pointer-events:none;width:auto;perspective-origin:0px 0px;transform:matrix(3.23974, 0, 0, 3.23974, 127.084, 11.2873);transform-origin:0px 0px;fill:rgb(92, 100, 97);"><path d="M8.62 14 c0.2 0 0.3 0.1 0.3 0.3 l0 10.24 c0 2.34 -1.4 3.46 -4.1 3.46 c-0.64 0 -1.16 -0.02 -1.84 -0.18 c-0.12 -0.02 -0.22 -0.1 -0.22 -0.24 l0 -0.74 c0 -0.12 0.1 -0.22 0.22 -0.2 c0.68 0.16 1.2 0.18 1.84 0.18 c1.78 0 2.82 -0.38 2.82 -2.24 l0 -1.96 c-0.4 0.88 -1.16 1.48 -2.54 1.48 l-0.66 0 c-2.12 0 -3.54 -1.38 -3.54 -3.66 l0 -2.88 c0 -2.32 1.42 -3.64 3.54 -3.64 l0.66 0 c1.38 0 2.14 0.52 2.54 1.38 l0 -1 c0 -0.2 0.12 -0.3 0.3 -0.3 l0.68 0 z M5.38 22.9 c1.44 0 2.26 -0.82 2.26 -2.34 l0 -3.04 c0 -1.62 -0.82 -2.4 -2.26 -2.4 l-0.92 0 c-1.46 0 -2.28 0.78 -2.28 2.4 l0 3.04 c0 1.52 0.82 2.34 2.28 2.34 l0.92 0 z M16.98 15.12 c-0.08 0.18 -0.22 0.22 -0.4 0.16 c-0.3 -0.1 -0.62 -0.16 -1.04 -0.16 l-0.24 0 c-1.52 0 -2.4 0.9 -2.7 1.42 l0 7.16 c0 0.2 -0.1 0.3 -0.3 0.3 l-0.68 0 c-0.2 0 -0.3 -0.1 -0.3 -0.3 l0 -9.4 c0 -0.2 0.1 -0.3 0.3 -0.3 l0.68 0 c0.2 0 0.3 0.1 0.3 0.3 l0 1.2 c0.72 -1.08 1.82 -1.58 3.16 -1.58 c0.46 0 0.92 0.06 1.32 0.2 c0.2 0.08 0.26 0.22 0.16 0.4 z M26.46 23.82 c0.02 0.08 0.04 0.18 -0.06 0.18 l-0.94 0 c-0.22 0 -0.32 -0.2 -0.32 -0.48 l0 -1.1 c-0.58 0.96 -1.44 1.68 -2.82 1.68 l-0.84 0 c-1.82 0 -2.98 -1.04 -2.98 -3.02 c0 -2 1.14 -2.88 2.94 -2.88 l3.7 0 l0 -0.68 c0 -1.88 -0.48 -2.4 -2.2 -2.4 l-0.42 0 c-1.06 0 -1.78 0.18 -2.42 0.52 c-0.2 0.1 -0.4 0.12 -0.48 -0.06 l-0.26 -0.56 c-0.06 -0.14 -0.06 -0.24 0.14 -0.36 c0.82 -0.52 1.92 -0.74 3.02 -0.74 l0.42 0 c2.48 0 3.48 1.14 3.48 3.62 l0 5.98 c0 0.1 0.02 0.22 0.04 0.3 z M22.380000000000003 22.9 c1.5 0 2.36 -0.8 2.76 -1.92 l0 -1.68 l-3.66 0 c-1.08 0 -1.7 0.42 -1.7 1.78 c0 1.34 0.62 1.82 1.7 1.82 l0.9 0 z M33.96000000000001 9.48 c0.2 0 0.3 0.1 0.3 0.3 l0 0.6 c0 0.2 -0.1 0.3 -0.3 0.3 l-1.22 0 c-1.28 0 -1.82 0.72 -1.82 2.24 l0 1.08 l2.84 0 c0.2 0 0.3 0.1 0.3 0.3 l0 0.6 c0 0.2 -0.1 0.3 -0.3 0.3 l-2.84 0 l0 8.5 c0 0.2 -0.1 0.3 -0.3 0.3 l-0.66 0 c-0.2 0 -0.3 -0.1 -0.3 -0.3 l0 -8.5 l-0.98 0 c-0.2 0 -0.3 -0.1 -0.3 -0.3 l0 -0.6 c0 -0.2 0.1 -0.3 0.3 -0.3 l0.98 0 l0 -1.08 c0 -2.24 1.06 -3.44 3.08 -3.44 l1.22 0 z M41.14000000000001 9.48 c0.2 0 0.3 0.1 0.3 0.3 l0 0.6 c0 0.2 -0.1 0.3 -0.3 0.3 l-1.22 0 c-1.28 0 -1.82 0.72 -1.82 2.24 l0 1.08 l2.84 0 c0.2 0 0.3 0.1 0.3 0.3 l0 0.6 c0 0.2 -0.1 0.3 -0.3 0.3 l-2.84 0 l0 8.5 c0 0.2 -0.1 0.3 -0.3 0.3 l-0.66 0 c-0.2 0 -0.3 -0.1 -0.3 -0.3 l0 -8.5 l-0.98 0 c-0.2 0 -0.3 -0.1 -0.3 -0.3 l0 -0.6 c0 -0.2 0.1 -0.3 0.3 -0.3 l0.98 0 l0 -1.08 c0 -2.24 1.06 -3.44 3.08 -3.44 l1.22 0 z M43.38 10.3 c0 -0.2 0.1 -0.3 0.3 -0.3 l0.62 0 c0.2 0 0.3 0.1 0.3 0.3 l0 0.7 c0 0.2 -0.1 0.3 -0.3 0.3 l-0.62 0 c-0.2 0 -0.3 -0.1 -0.3 -0.3 l0 -0.7 z M43.34 14.3 c0 -0.2 0.1 -0.3 0.3 -0.3 l0.68 0 c0.2 0 0.3 0.1 0.3 0.3 l0 9.4 c0 0.2 -0.1 0.3 -0.3 0.3 l-0.68 0 c-0.2 0 -0.3 -0.1 -0.3 -0.3 l0 -9.4 z M50.980000000000004 15.2 l-1.62 0 l0 5.7 c0 1.38 0.36 1.92 1.62 1.96 c0.2 0 0.28 0.14 0.28 0.32 l-0.02 0.56 c0 0.18 -0.12 0.3 -0.34 0.3 c-2.12 -0.04 -2.82 -1.06 -2.82 -3.14 l0 -5.7 l-1.06 0 c-0.2 0 -0.3 -0.1 -0.3 -0.3 l0 -0.58 c0 -0.22 0.1 -0.32 0.3 -0.32 l1.06 0 l0 -1.2 c0 -0.2 0.1 -0.3 0.3 -0.3 l0.68 0 c0.2 0 0.3 0.1 0.3 0.3 l0 1.2 l1.6 0 c0.22 0 0.32 0.1 0.32 0.3 l0 0.6 c0 0.2 -0.1 0.3 -0.3 0.3 z M53.52 10.3 c0 -0.2 0.1 -0.3 0.3 -0.3 l0.62 0 c0.2 0 0.3 0.1 0.3 0.3 l0 0.7 c0 0.2 -0.1 0.3 -0.3 0.3 l-0.62 0 c-0.2 0 -0.3 -0.1 -0.3 -0.3 l0 -0.7 z M53.480000000000004 14.3 c0 -0.2 0.1 -0.3 0.3 -0.3 l0.68 0 c0.2 0 0.3 0.1 0.3 0.3 l0 9.4 c0 0.2 -0.1 0.3 -0.3 0.3 l-0.68 0 c-0.2 0 -0.3 -0.1 -0.3 -0.3 l0 -9.4 z M60.74 18.34 c2.22 0.26 3.82 0.6 3.82 2.86 c0 2.08 -1.5 2.9 -3.44 2.9 l-0.78 0 c-1.9 0 -3.08 -0.9 -3.36 -2.52 c-0.04 -0.18 0.06 -0.3 0.26 -0.3 l0.74 0 c0.18 0 0.3 0.1 0.34 0.28 c0.24 0.92 0.82 1.34 2.02 1.34 l0.8 0 c1.26 0 2.14 -0.4 2.14 -1.7 c0 -1.34 -1.02 -1.54 -2.54 -1.7 c-2.3 -0.22 -3.62 -0.68 -3.62 -2.84 c0 -1.94 1.3 -2.72 3.28 -2.72 l0.62 0 c1.9 0 3.18 0.9 3.26 2.7 c0 0.2 -0.06 0.32 -0.28 0.32 l-0.68 0 c-0.2 0 -0.32 -0.1 -0.36 -0.32 c-0.1 -1.04 -0.74 -1.54 -1.98 -1.54 l-0.54 0 c-1.28 0 -2.06 0.4 -2.06 1.56 c0 1.24 0.84 1.52 2.36 1.68 z M70.32 15.2 l-1.62 0 l0 5.7 c0 1.38 0.36 1.92 1.62 1.96 c0.2 0 0.28 0.14 0.28 0.32 l-0.02 0.56 c0 0.18 -0.12 0.3 -0.34 0.3 c-2.12 -0.04 -2.82 -1.06 -2.82 -3.14 l0 -5.7 l-1.06 0 c-0.2 0 -0.3 -0.1 -0.3 -0.3 l0 -0.58 c0 -0.22 0.1 -0.32 0.3 -0.32 l1.06 0 l0 -1.2 c0 -0.2 0.1 -0.3 0.3 -0.3 l0.68 0 c0.2 0 0.3 0.1 0.3 0.3 l0 1.2 l1.6 0 c0.22 0 0.32 0.1 0.32 0.3 l0 0.6 c0 0.2 -0.1 0.3 -0.3 0.3 z" style="height:auto;overflow-x:visible;overflow-y:visible;pointer-events:none;width:auto;perspective-origin:0px 0px;transform-origin:0px 0px;fill:rgb(92, 100, 97);d:path('M 8.62 14 c 0.2 0 0.3 0.1 0.3 0.3 l 0 10.24 c 0 2.34 -1.4 3.46 -4.1 3.46 c -0.64 0 -1.16 -0.02 -1.84 -0.18 c -0.12 -0.02 -0.22 -0.1 -0.22 -0.24 l 0 -0.74 c 0 -0.12 0.1 -0.22 0.22 -0.2 c 0.68 0.16 1.2 0.18 1.84 0.18 c 1.78 0 2.82 -0.38 2.82 -2.24 l 0 -1.96 c -0.4 0.88 -1.16 1.48 -2.54 1.48 l -0.66 0 c -2.12 0 -3.54 -1.38 -3.54 -3.66 l 0 -2.88 c 0 -2.32 1.42 -3.64 3.54 -3.64 l 0.66 0 c 1.38 0 2.14 0.52 2.54 1.38 l 0 -1 c 0 -0.2 0.12 -0.3 0.3 -0.3 l 0.68 0 Z M 5.38 22.9 c 1.44 0 2.26 -0.82 2.26 -2.34 l 0 -3.04 c 0 -1.62 -0.82 -2.4 -2.26 -2.4 l -0.92 0 c -1.46 0 -2.28 0.78 -2.28 2.4 l 0 3.04 c 0 1.52 0.82 2.34 2.28 2.34 l 0.92 0 Z M 16.98 15.12 c -0.08 0.18 -0.22 0.22 -0.4 0.16 c -0.3 -0.1 -0.62 -0.16 -1.04 -0.16 l -0.24 0 c -1.52 0 -2.4 0.9 -2.7 1.42 l 0 7.16 c 0 0.2 -0.1 0.3 -0.3 0.3 l -0.68 0 c -0.2 0 -0.3 -0.1 -0.3 -0.3 l 0 -9.4 c 0 -0.2 0.1 -0.3 0.3 -0.3 l 0.68 0 c 0.2 0 0.3 0.1 0.3 0.3 l 0 1.2 c 0.72 -1.08 1.82 -1.58 3.16 -1.58 c 0.46 0 0.92 0.06 1.32 0.2 c 0.2 0.08 0.26 0.22 0.16 0.4 Z M 26.46 23.82 c 0.02 0.08 0.04 0.18 -0.06 0.18 l -0.94 0 c -0.22 0 -0.32 -0.2 -0.32 -0.48 l 0 -1.1 c -0.58 0.96 -1.44 1.68 -2.82 1.68 l -0.84 0 c -1.82 0 -2.98 -1.04 -2.98 -3.02 c 0 -2 1.14 -2.88 2.94 -2.88 l 3.7 0 l 0 -0.68 c 0 -1.88 -0.48 -2.4 -2.2 -2.4 l -0.42 0 c -1.06 0 -1.78 0.18 -2.42 0.52 c -0.2 0.1 -0.4 0.12 -0.48 -0.06 l -0.26 -0.56 c -0.06 -0.14 -0.06 -0.24 0.14 -0.36 c 0.82 -0.52 1.92 -0.74 3.02 -0.74 l 0.42 0 c 2.48 0 3.48 1.14 3.48 3.62 l 0 5.98 c 0 0.1 0.02 0.22 0.04 0.3 Z M 22.38 22.9 c 1.5 0 2.36 -0.8 2.76 -1.92 l 0 -1.68 l -3.66 0 c -1.08 0 -1.7 0.42 -1.7 1.78 c 0 1.34 0.62 1.82 1.7 1.82 l 0.9 0 Z M 33.96 9.48 c 0.2 0 0.3 0.1 0.3 0.3 l 0 0.6 c 0 0.2 -0.1 0.3 -0.3 0.3 l -1.22 0 c -1.28 0 -1.82 0.72 -1.82 2.24 l 0 1.08 l 2.84 0 c 0.2 0 0.3 0.1 0.3 0.3 l 0 0.6 c 0 0.2 -0.1 0.3 -0.3 0.3 l -2.84 0 l 0 8.5 c 0 0.2 -0.1 0.3 -0.3 0.3 l -0.66 0 c -0.2 0 -0.3 -0.1 -0.3 -0.3 l 0 -8.5 l -0.98 0 c -0.2 0 -0.3 -0.1 -0.3 -0.3 l 0 -0.6 c 0 -0.2 0.1 -0.3 0.3 -0.3 l 0.98 0 l 0 -1.08 c 0 -2.24 1.06 -3.44 3.08 -3.44 l 1.22 0 Z M 41.14 9.48 c 0.2 0 0.3 0.1 0.3 0.3 l 0 0.6 c 0 0.2 -0.1 0.3 -0.3 0.3 l -1.22 0 c -1.28 0 -1.82 0.72 -1.82 2.24 l 0 1.08 l 2.84 0 c 0.2 0 0.3 0.1 0.3 0.3 l 0 0.6 c 0 0.2 -0.1 0.3 -0.3 0.3 l -2.84 0 l 0 8.5 c 0 0.2 -0.1 0.3 -0.3 0.3 l -0.66 0 c -0.2 0 -0.3 -0.1 -0.3 -0.3 l 0 -8.5 l -0.98 0 c -0.2 0 -0.3 -0.1 -0.3 -0.3 l 0 -0.6 c 0 -0.2 0.1 -0.3 0.3 -0.3 l 0.98 0 l 0 -1.08 c 0 -2.24 1.06 -3.44 3.08 -3.44 l 1.22 0 Z M 43.38 10.3 c 0 -0.2 0.1 -0.3 0.3 -0.3 l 0.62 0 c 0.2 0 0.3 0.1 0.3 0.3 l 0 0.7 c 0 0.2 -0.1 0.3 -0.3 0.3 l -0.62 0 c -0.2 0 -0.3 -0.1 -0.3 -0.3 l 0 -0.7 Z M 43.34 14.3 c 0 -0.2 0.1 -0.3 0.3 -0.3 l 0.68 0 c 0.2 0 0.3 0.1 0.3 0.3 l 0 9.4 c 0 0.2 -0.1 0.3 -0.3 0.3 l -0.68 0 c -0.2 0 -0.3 -0.1 -0.3 -0.3 l 0 -9.4 Z M 50.98 15.2 l -1.62 0 l 0 5.7 c 0 1.38 0.36 1.92 1.62 1.96 c 0.2 0 0.28 0.14 0.28 0.32 l -0.02 0.56 c 0 0.18 -0.12 0.3 -0.34 0.3 c -2.12 -0.04 -2.82 -1.06 -2.82 -3.14 l 0 -5.7 l -1.06 0 c -0.2 0 -0.3 -0.1 -0.3 -0.3 l 0 -0.58 c 0 -0.22 0.1 -0.32 0.3 -0.32 l 1.06 0 l 0 -1.2 c 0 -0.2 0.1 -0.3 0.3 -0.3 l 0.68 0 c 0.2 0 0.3 0.1 0.3 0.3 l 0 1.2 l 1.6 0 c 0.22 0 0.32 0.1 0.32 0.3 l 0 0.6 c 0 0.2 -0.1 0.3 -0.3 0.3 Z M 53.52 10.3 c 0 -0.2 0.1 -0.3 0.3 -0.3 l 0.62 0 c 0.2 0 0.3 0.1 0.3 0.3 l 0 0.7 c 0 0.2 -0.1 0.3 -0.3 0.3 l -0.62 0 c -0.2 0 -0.3 -0.1 -0.3 -0.3 l 0 -0.7 Z M 53.48 14.3 c 0 -0.2 0.1 -0.3 0.3 -0.3 l 0.68 0 c 0.2 0 0.3 0.1 0.3 0.3 l 0 9.4 c 0 0.2 -0.1 0.3 -0.3 0.3 l -0.68 0 c -0.2 0 -0.3 -0.1 -0.3 -0.3 l 0 -9.4 Z M 60.74 18.34 c 2.22 0.26 3.82 0.6 3.82 2.86 c 0 2.08 -1.5 2.9 -3.44 2.9 l -0.78 0 c -1.9 0 -3.08 -0.9 -3.36 -2.52 c -0.04 -0.18 0.06 -0.3 0.26 -0.3 l 0.74 0 c 0.18 0 0.3 0.1 0.34 0.28 c 0.24 0.92 0.82 1.34 2.02 1.34 l 0.8 0 c 1.26 0 2.14 -0.4 2.14 -1.7 c 0 -1.34 -1.02 -1.54 -2.54 -1.7 c -2.3 -0.22 -3.62 -0.68 -3.62 -2.84 c 0 -1.94 1.3 -2.72 3.28 -2.72 l 0.62 0 c 1.9 0 3.18 0.9 3.26 2.7 c 0 0.2 -0.06 0.32 -0.28 0.32 l -0.68 0 c -0.2 0 -0.32 -0.1 -0.36 -0.32 c -0.1 -1.04 -0.74 -1.54 -1.98 -1.54 l -0.54 0 c -1.28 0 -2.06 0.4 -2.06 1.56 c 0 1.24 0.84 1.52 2.36 1.68 Z M 70.32 15.2 l -1.62 0 l 0 5.7 c 0 1.38 0.36 1.92 1.62 1.96 c 0.2 0 0.28 0.14 0.28 0.32 l -0.02 0.56 c 0 0.18 -0.12 0.3 -0.34 0.3 c -2.12 -0.04 -2.82 -1.06 -2.82 -3.14 l 0 -5.7 l -1.06 0 c -0.2 0 -0.3 -0.1 -0.3 -0.3 l 0 -0.58 c 0 -0.22 0.1 -0.32 0.3 -0.32 l 1.06 0 l 0 -1.2 c 0 -0.2 0.1 -0.3 0.3 -0.3 l 0.68 0 c 0.2 0 0.3 0.1 0.3 0.3 l 0 1.2 l 1.6 0 c 0.22 0 0.32 0.1 0.32 0.3 l 0 0.6 c 0 0.2 -0.1 0.3 -0.3 0.3 Z');"/></g></svg>